HIERARCHY
ROOT Hips
{
	OFFSET 0.000000 0.000000 0.000000 
	CHANNELS 6 Xposition Yposition Zposition Yrotation Zrotation Xrotation 
	JOINT Lumbar
	{
		OFFSET 0.000000 0.000000 0.000000 
		CHANNELS 3 Zrotation Xrotation Yrotation
		JOINT Neck
		{
			OFFSET 0.000000 0.445665 0.000000 
			CHANNELS 3 Zrotation Xrotation Yrotation
			End Site
			{
				OFFSET 0.000000 0.227535 0.000000 
			}
		}
		JOINT RightShoulder
		{
			OFFSET 0.019635 0.377685 0.194865 
			CHANNELS 3 Zrotation Xrotation Yrotation
			JOINT RightElbow
			{
				OFFSET 0.000000 -0.243375 0.000000 
				CHANNELS 2 Zrotation Yrotation
				JOINT RightWrist
				{
					OFFSET 0.000000 -0.264825 0.000000 
					CHANNELS 2 Zrotation Xrotation
					End Site
					{
						OFFSET 0.006600 -0.176220 0.000990 
					}
				}
			}
		}
		JOINT LeftShoulder
		{
			OFFSET 0.019635 0.377685 -0.194865 
			CHANNELS 3 Zrotation Xrotation Yrotation
			JOINT LeftElbow
			{
				OFFSET 0.000000 -0.243375 0.000000 
				CHANNELS 2 Zrotation Yrotation
				JOINT LeftWrist
				{
					OFFSET 0.000000 -0.264825 0.000000 
					CHANNELS 2 Zrotation Xrotation
					End Site
					{
						OFFSET 0.006600 -0.176220 -0.000990 
					}
				}
			}
		}
	}
	JOINT RightHip
	{
		OFFSET 0.052140 -0.069960 0.075570 
		CHANNELS 3 Zrotation Xrotation Yrotation
		JOINT RightKnee
		{
			OFFSET 0.000000 -0.402270 0.000000 
			CHANNELS 1 Zrotation
			JOINT RightAnkle
			{
				OFFSET 0.000000 -0.404085 0.000000 
				CHANNELS 3 Zrotation Xrotation Yrotation
				End Site
				{
					OFFSET 0.204105 -0.089430 0.008415 
				}
			}
		}
	}
	JOINT LeftHip
	{
		OFFSET 0.052140 -0.069960 -0.075570 
		CHANNELS 3 Zrotation Xrotation Yrotation
		JOINT LeftKnee
		{
			OFFSET 0.000000 -0.402270 0.000000 
			CHANNELS 1 Zrotation
			JOINT LeftAnkle
			{
				OFFSET 0.000000 -0.404085 0.000000 
				CHANNELS 3 Zrotation Xrotation Yrotation
				End Site
				{
					OFFSET 0.204105 -0.089430 -0.008415 
				}
			}
		}
	}
}
MOTION
Frames: 35
Frame Time: 0.02
-0 0.95578 -0 191.91288 0 -6.7131 8.46832 7.01636 -6.15207 -32.0284 5.71882 5.62935 25.69443 -21.1951 8.68036 11.3242 79.3639 0.75615 -2.61268 26.20465 6.09716 -12.66627 9.24121 -82.68524 -1.32486 1.30533 -5.88234 6.93939 -8.35814 -5.72916 -12.10643 -1.59503 -7.74644 -9.80989 8.80236 15.23145 0.11399 -3.7907 2.3756 5.23757
0.00019 0.95578 0.00051 191.96213 0 -6.67732 8.44498 6.9896 -6.16519 -32.03567 5.69482 5.59363 25.67941 -21.1948 8.62521 11.30101 79.36848 0.77002 -2.58245 26.22834 6.0903 -12.67507 9.2543 -82.63791 -1.3257 1.31337 -5.88767 6.88026 -8.37453 -5.73119 -12.08554 -1.60285 -7.75862 -9.77183 8.74881 14.84194 0.06921 -3.79724 2.41439 5.58241
0.00039 0.95577 0.00103 192.01206 0 -6.64148 8.42157 6.96275 -6.17854 -32.04333 5.67152 5.55816 25.66493 -21.19542 8.57003 11.27785 79.37356 0.78352 -2.55237 26.25254 6.08256 -12.68429 9.26742 -82.59088 -1.32653 1.3215 -5.89315 6.82091 -8.39143 -5.73299 -12.06486 -1.61062 -7.7708 -9.73339 8.69509 14.45623 0.02402 -3.80338 2.45276 5.92296
0.00059 0.95577 0.00155 192.06445 0 -6.60504 8.39794 6.9356 -6.19299 -32.05158 5.64962 5.52265 25.65138 -21.1981 8.51366 11.25457 79.381 0.79689 -2.52237 26.27775 6.07276 -12.69433 9.28079 -82.5446 -1.32731 1.32986 -5.89946 6.76061 -8.40997 -5.73364 -12.04463 -1.61823 -7.783 -9.69326 8.64063 14.0838 -0.02338 -3.80794 2.48983 6.24841
0.00076 0.95576 0.00201 192.10295 0 -6.57176 8.37585 6.91041 -6.20166 -32.05539 5.61891 5.48646 25.63161 -21.1879 8.46292 11.23193 79.37624 0.81241 -2.4917 26.2961 6.0757 -12.69891 9.29284 -82.49437 -1.32836 1.33676 -5.90158 6.70593 -8.41918 -5.74007 -12.02179 -1.62666 -7.79497 -9.66231 8.59064 13.64326 -0.05923 -3.82081 2.53378 6.65225
0.00099 0.95576 0.00262 192.17138 0 -6.53182 8.35025 6.88087 -6.22254 -32.06949 5.60782 5.45236 25.62589 -21.2063 8.40077 11.20797 79.39709 0.8224 -2.46267 26.32998 6.05045 -12.71576 9.30768 -82.45251 -1.32883 1.34689 -5.91244 6.63904 -8.44856 -5.73449 -12.00463 -1.63335 -7.80748 -9.61183 8.53089 13.34569 -0.11939 -3.81616 2.56315 6.89096
0.00139 0.95578 0.00368 192.32232 0 -6.47204 8.31594 6.84003 -6.27907 -32.10656 5.64479 5.41873 25.65347 -21.29642 8.3007 11.17967 79.49406 0.82521 -2.43561 26.4008 5.95391 -12.76187 9.33069 -82.43401 -1.32756 1.36537 -5.94922 6.53836 -8.53239 -5.69275 -12.00201 -1.63538 -7.82169 -9.50521 8.44446 13.46246 -0.25133 -3.76054 2.55161 6.65417
0.00185 0.95582 0.00491 192.50349 0 -6.40579 8.27776 6.79458 -6.34767 -32.15543 5.7029 5.38857 25.6967 -21.41724 8.19028 11.15022 79.61634 0.82107 -2.41052 26.48877 5.82731 -12.82098 9.3564 -82.42392 -1.32571 1.38725 -5.99436 6.42525 -8.63662 -5.63961 -12.0053 -1.63565 -7.83654 -9.37921 8.34803 13.72032 -0.40704 -3.68763 2.52548 6.25391
0.00229 0.95586 0.00607 192.67138 0 -6.34332 8.24081 6.75075 -6.40957 -32.20203 5.75517 5.35971 25.73587 -21.52839 8.08852 11.12164 79.72318 0.81475 -2.38632 26.57244 5.71048 -12.87763 9.38062 -82.40978 -1.32419 1.40793 -6.03475 6.31773 -8.73279 -5.59327 -12.00665 -1.63664 -7.85078 -9.26333 8.25587 13.90079 -0.54911 -3.62428 2.5064 5.9409
0.00271 0.95589 0.00717 192.83811 0 -6.27712 8.20653 6.70907 -6.47651 -32.23403 5.7909 5.31698 25.76047 -21.61991 7.96967 11.09131 79.84517 0.83055 -2.35514 26.64006 5.61132 -12.92097 9.4061 -82.39651 -1.32241 1.42704 -6.07984 6.21045 -8.825 -5.53917 -12.00493 -1.63795 -7.86581 -9.14173 8.16486 14.13636 -0.70338 -3.55388 2.48545 5.57354
0.00319 0.95593 0.00845 193.01345 0 -6.21742 8.16525 6.66167 -6.53591 -32.30116 5.86688 5.30615 25.82126 -21.76158 7.88445 11.06474 79.94345 0.79915 -2.33831 26.74681 5.46668 -12.99353 9.42942 -82.38354 -1.32103 1.45035 -6.11624 6.09976 -8.92886 -5.49968 -12.01093 -1.63819 -7.88007 -9.02766 8.0691 14.29186 -0.83759 -3.49391 2.46505 5.28011
0.00383 0.95603 0.01015 193.21323 0 -6.17482 8.10949 6.60082 -6.57041 -32.4458 6.0421 5.36364 25.96012 -22.01691 7.89063 11.04526 79.9539 0.63481 -2.36597 26.94312 5.21734 -13.15721 9.44765 -82.36834 -1.32073 1.48348 -6.13358 5.98237 -9.07187 -5.49429 -12.03731 -1.63565 -7.88599 -8.93716 7.9624 14.18135 -0.91324 -3.4681 2.44895 5.23532
0.00455 0.95614 0.01203 193.41879 0 -6.13945 8.04582 6.53412 -6.59697 -32.6282 6.25827 5.45647 26.13845 -22.32455 7.93184 11.03023 79.94228 0.42412 -2.40686 27.18056 4.92106 -13.34724 9.46331 -82.35334 -1.32087 1.52086 -6.14012 5.86208 -9.22333 -5.50625 -12.0711 -1.63212 -7.89236 -8.85523 7.85136 13.98718 -0.96743 -3.45322 2.43412 5.27019
0.00525 0.95624 0.01384 193.6169 0 -6.1023 7.98351 6.46935 -6.62805 -32.80456 6.46022 5.54577 26.31022 -22.62001 7.95956 11.01549 79.95182 0.23734 -2.43837 27.40898 4.637 -13.51638 9.47922 -82.33886 -1.32092 1.55701 -6.14759 5.7433 -9.36347 -5.51545 -12.10126 -1.62919 -7.90237 -8.77072 7.74246 13.83833 -1.02966 -3.43252 2.41916 5.2651
0.00588 0.95634 0.01561 193.83788 0 -6.05847 7.93154 6.40762 -6.65623 -32.93554 6.6447 5.58306 26.43355 -22.86895 7.97638 10.99101 79.91674 0.03787 -2.48476 27.59857 4.38908 -13.72392 9.49925 -82.32203 -1.32055 1.59053 -6.174 5.62316 -9.53724 -5.50023 -12.13301 -1.62555 -7.8957 -8.68018 7.63237 13.66423 -1.0998 -3.41461 2.40157 5.26833
0.00667 0.95644 0.01749 194.01038 0 -6.0305 7.85493 6.33808 -6.68773 -33.16839 6.87458 5.73605 26.66815 -23.22512 8.0247 10.98781 79.96714 -0.14556 -2.50252 27.87684 4.05672 -13.85721 9.50985 -82.3101 -1.3211 1.63019 -6.15599 5.50547 -9.64101 -5.54312 -12.16277 -1.62318 -7.92446 -8.60424 7.524 13.52023 -1.14828 -3.39397 2.39024 5.2776
0.00781 0.95651 0.01964 194.06209 0 -6.04366 7.7228 6.24987 -6.73586 -33.68537 7.22325 6.20841 27.19015 -23.87849 8.1484 11.04309 80.27521 -0.27797 -2.44496 28.40428 3.48963 -13.78189 9.49655 -82.31113 -1.32461 1.68823 -6.03671 5.39437 -9.56278 -5.71785 -12.1887 -1.62463 -8.04638 -8.56899 7.42053 13.48763 -1.1397 -3.36091 2.39339 5.26371
0.00912 0.95657 0.02187 194.06135 0 -6.07294 7.56402 6.15391 -6.78643 -34.30093 7.61514 6.79438 27.82463 -24.63478 8.30309 11.11949 80.66689 -0.39191 -2.35713 29.01652 2.84209 -13.63039 9.47344 -82.3171 -1.32893 1.75171 -5.86902 5.28637 -9.41057 -5.95567 -12.21203 -1.62733 -8.20502 -8.54793 7.3193 13.48739 -1.11021 -3.32523 2.40327 5.25695
0.01038 0.95664 0.02404 194.07577 0 -6.09524 7.41071 6.06035 -6.83231 -34.86376 7.98534 7.32275 28.4142 -25.33524 8.4458 11.18573 81.00955 -0.51103 -2.27818 29.58079 2.23966 -13.51178 9.45401 -82.32118 -1.33253 1.81116 -5.71181 5.17716 -9.28416 -6.17989 -12.23386 -1.6295 -8.34955 -8.51867 7.21751 13.46473 -1.09209 -3.29229 2.41187 5.26211
0.0115 0.95669 0.02634 194.12956 0 -6.11556 7.28582 5.97063 -6.89338 -35.46268 8.36703 7.87757 28.97887 -26.07762 8.58133 11.25454 81.3981 -0.64467 -2.21902 30.18742 1.59812 -13.40124 9.43832 -82.32398 -1.33767 1.8777 -5.60503 5.06566 -9.19368 -6.33861 -12.26597 -1.63172 -8.48225 -8.49646 7.11305 13.4662 -1.06621 -3.25318 2.41331 5.20928
0.01296 0.95677 0.02837 194.08566 0 -6.1447 7.09468 5.872 -6.92308 -36.0077 8.73277 8.40381 29.62173 -26.75416 8.73808 11.32292 81.71108 -0.74392 -2.11287 30.72403 1.02127 -13.25564 9.41185 -82.33035 -1.33975 1.93023 -5.37914 4.96139 -9.00741 -6.65158 -12.27757 -1.63384 -8.64953 -8.46359 7.01547 13.43323 -1.05074 -3.22613 2.43089 5.27373
0.01528 0.95691 0.02969 193.81139 0 -6.18582 6.73439 5.74326 -6.86888 -36.3936 9.05865 8.82316 30.45188 -27.2427 8.95139 11.38482 81.79587 -0.74483 -1.86979 31.05838 0.62821 -13.02977 9.36378 -82.34764 -1.33345 1.94678 -4.85907 4.86211 -8.60415 -7.34918 -12.21928 -1.63803 -8.89257 -8.39144 6.93021 13.23586 -1.07862 -3.23331 2.49464 5.6973
0.01794 0.95708 0.03072 193.43553 0 -6.23674 6.30723 5.60716 -6.78226 -36.71904 9.36421 9.20961 31.35689 -27.65757 9.18384 11.44523 81.80165 -0.71265 -1.58257 31.31695 0.30598 -12.77137 9.30408 -82.36791 -1.32401 1.94821 -4.21653 4.77286 -8.10259 -8.20463 -12.143 -1.64157 -9.17088 -8.30919 6.85301 13.01376 -1.11624 -3.25255 2.57386 6.23218
0.02047 0.95725 0.03187 193.08882 0 -6.28874 5.90566 5.4794 -6.70861 -37.06293 9.66897 9.61115 32.22813 -28.0935 9.40364 11.50678 81.84308 -0.70105 -1.32578 31.60225 -0.03891 -12.52923 9.246 -82.38536 -1.31583 1.95394 -3.61516 4.68814 -7.62535 -9.00462 -12.08403 -1.64373 -9.44039 -8.23573 6.77608 12.84466 -1.14306 -3.26607 2.64381 6.6904
0.02291 0.95739 0.0331 192.81247 0 -6.31815 5.52252 5.33057 -6.64331 -37.44852 10.01691 10.01639 33.10211 -28.58568 9.64095 11.56846 81.88849 -0.66695 -1.02645 31.92303 -0.42684 -12.27872 9.20323 -82.40927 -1.30832 1.97091 -3.0734 4.56438 -7.22702 -9.73786 -11.98643 -1.65311 -9.68172 -8.14516 6.68242 12.50368 -1.19523 -3.28072 2.72326 7.25565
0.0256 0.95759 0.03407 192.36572 0 -6.39646 5.08657 5.22361 -6.55187 -37.73143 10.27042 10.40424 33.98689 -28.94164 9.8463 11.62753 81.90575 -0.67021 -0.80274 32.15088 -0.70727 -12.03825 9.1257 -82.42026 -1.29871 1.96057 -2.37886 4.52522 -6.64753 -10.64707 -11.96502 -1.64716 -9.98832 -8.0875 6.62576 12.51022 -1.19819 -3.29566 2.78677 7.6285
0.02894 0.958 0.03439 191.4781 0 -6.60924 4.51309 5.23744 -6.40552 -37.74725 10.26008 10.75481 34.88041 -28.94065 9.9531 11.69416 81.86469 -0.80082 -0.82348 32.13998 -0.70767 -11.83931 8.95746 -82.39557 -1.28378 1.88029 -1.29608 4.70857 -5.54794 -11.9984 -12.15776 -1.60022 -10.47751 -8.12454 6.66689 13.5181 -1.05433 -3.31051 2.79989 7.40575
0.0325 0.95847 0.03444 190.42286 0 -6.87023 3.89137 5.29314 -6.23274 -37.66149 10.1567 11.08786 35.78187 -28.80448 10.0265 11.75532 81.79775 -0.96728 -0.91728 32.03823 -0.60205 -11.65084 8.75432 -82.35758 -1.26691 1.77267 -0.0649 4.97785 -4.28068 -13.52007 -12.4272 -1.53779 -11.02872 -8.1949 6.74535 14.86943 -0.86229 -3.32483 2.79679 6.99188
0.03594 0.9589 0.03458 189.44023 0 -7.10814 3.2959 5.3274 -6.06529 -37.62006 10.10099 11.42668 36.68131 -28.72873 10.12058 11.80953 81.74202 -1.1068 -0.96154 31.9776 -0.54488 -11.45414 8.56554 -82.32518 -1.25109 1.67634 1.10254 5.21403 -3.11593 -14.96929 -12.66286 -1.48147 -11.54439 -8.2488 6.80835 16.04039 -0.69801 -3.33809 2.80286 6.69043
0.03952 0.95937 0.03487 188.46503 0 -7.35228 2.67583 5.37128 -5.92281 -37.58239 10.02186 11.77396 37.57791 -28.65424 10.19818 11.90391 81.68536 -1.28996 -1.07345 31.9136 -0.48405 -11.27106 8.38239 -82.29488 -1.23439 1.58426 2.2652 5.42731 -1.82557 -16.4111 -12.89633 -1.42842 -12.09322 -8.30717 6.86556 17.31437 -0.50933 -3.35738 2.80224 6.28709
0.04282 0.95978 0.03477 187.44097 0 -7.59361 2.10139 5.40556 -5.72513 -37.51596 9.96969 12.09954 38.47985 -28.54662 10.29434 11.91289 81.62623 -1.39134 -1.0621 31.83791 -0.40674 -11.06237 8.17978 -82.25691 -1.21917 1.47705 3.46324 5.70622 -0.77215 -17.89669 -13.14907 -1.36568 -12.58617 -8.36524 6.94323 18.45397 -0.3599 -3.36367 2.81105 6.04643
0.04556 0.96003 0.03368 186.27994 0 -7.82482 1.6233 5.39935 -5.35853 -37.37456 10.01419 12.37243 39.40626 -28.37552 10.515 11.6919 81.56079 -1.25701 -0.69606 31.73655 -0.30843 -10.78231 7.92908 -82.20196 -1.20787 1.33518 4.7919 6.16534 -0.29379 -19.54676 -13.46802 -1.27341 -12.91836 -8.40587 7.07119 19.15264 -0.33142 -3.33508 2.85391 6.32484
0.04796 0.96021 0.0322 185.08414 0 -8.04948 1.20128 5.38258 -4.94163 -37.21192 10.08899 12.62381 40.33496 -28.17724 10.74354 11.38485 81.49524 -1.03963 -0.20368 31.63005 -0.19762 -10.4762 7.66099 -82.1396 -1.19827 1.17933 6.13723 6.68377 -0.08075 -21.21828 -13.79758 -1.17328 -13.19027 -8.44659 7.2178 19.70149 -0.34442 -3.29297 2.9061 6.7689
0.05035 0.96041 0.0309 183.93298 0 -8.27125 0.78061 5.37335 -4.56316 -37.07258 10.1507 12.8831 41.25482 -27.99481 10.92532 11.11361 81.43397 -0.86102 0.23378 31.53633 -0.0941 -10.18061 7.40235 -82.07994 -1.18831 1.02931 7.42926 7.16181 0.17199 -22.82332 -14.10195 -1.08088 -13.48402 -8.49298 7.35402 20.31002 -0.33725 -3.25666 2.95117 7.12121
0.05346 0.96067 0.0296 182.65399 0 -8.52056 0.24328 5.35477 -4.11853 -36.8717 10.20731 13.14914 42.20882 -27.79204 11.287 10.85399 81.35391 -0.67879 0.66085 31.39459 0.01914 -9.88984 7.13442 -82.02244 -1.1765 0.87931 8.92071 7.69947 0.76437 -24.67405 -14.49621 -0.96985 -13.80384 -8.51681 7.49993 20.96688 -0.33195 -3.2227 3.0074 7.53567
